<?xml version="1.0" encoding="UTF-8" standalone="no"?>
<!DOCTYPE svg PUBLIC "-//W3C//DTD SVG 1.1//EN"
 "http://www.w3.org/Graphics/SVG/1.1/DTD/svg11.dtd">
<!-- Generated by graphviz version 15.0.0 (20260523.1842)
 -->
<!-- Title: G Pages: 1 -->
<svg width="1748pt" height="198pt"
 viewBox="0.00 0.00 1748.00 198.00" xmlns="http://www.w3.org/2000/svg" xmlns:xlink="http://www.w3.org/1999/xlink">
<g id="graph0" class="graph" transform="scale(1 1) rotate(0) translate(4 194)">
<title>G</title>
<polygon fill="white" stroke="none" points="-4,4 -4,-194 1743.75,-194 1743.75,4 -4,4"/>
<!-- azurerm_application_security_group.af&#45;asg -->
<g id="node1" class="node">
<title>azurerm_application_security_group.af&#45;asg</title>
<polygon fill="none" stroke="black" points="495.5,-36 220,-36 220,0 495.5,0 495.5,-36"/>
<text xml:space="preserve" text-anchor="middle" x="357.75" y="-12.2" font-family="sans-serif" font-size="14.00">azurerm_application_security_group.af&#45;asg</text>
</g>
<!-- azurerm_resource_group.rg -->
<g id="node5" class="node">
<title>azurerm_resource_group.rg</title>
<polygon fill="none" stroke="black" points="184,-113 0,-113 0,-77 184,-77 184,-113"/>
<text xml:space="preserve" text-anchor="middle" x="92" y="-89.2" font-family="sans-serif" font-size="14.00">azurerm_resource_group.rg</text>
</g>
<!-- azurerm_application_security_group.af&#45;asg&#45;&gt;azurerm_resource_group.rg -->
<g id="edge1" class="edge">
<title>azurerm_application_security_group.af&#45;asg&#45;&gt;azurerm_resource_group.rg</title>
<path fill="none" stroke="black" d="M293.58,-36.44C255.55,-47.55 206.94,-61.74 167.1,-73.37"/>
<polygon fill="black" stroke="black" points="166.19,-69.99 157.57,-76.15 168.15,-76.71 166.19,-69.99"/>
</g>
<!-- azurerm_network_interface.vm1&#45;nic -->
<g id="node2" class="node">
<title>azurerm_network_interface.vm1&#45;nic</title>
<polygon fill="none" stroke="black" points="1134.25,-59 902.25,-59 902.25,-23 1134.25,-23 1134.25,-59"/>
<text xml:space="preserve" text-anchor="middle" x="1018.25" y="-35.2" font-family="sans-serif" font-size="14.00">azurerm_network_interface.vm1&#45;nic</text>
</g>
<!-- azurerm_subnet.frontend -->
<g id="node8" class="node">
<title>azurerm_subnet.frontend</title>
<polygon fill="none" stroke="black" points="736.5,-59 569,-59 569,-23 736.5,-23 736.5,-59"/>
<text xml:space="preserve" text-anchor="middle" x="652.75" y="-35.2" font-family="sans-serif" font-size="14.00">azurerm_subnet.frontend</text>
</g>
<!-- azurerm_network_interface.vm1&#45;nic&#45;&gt;azurerm_subnet.frontend -->
<g id="edge2" class="edge">
<title>azurerm_network_interface.vm1&#45;nic&#45;&gt;azurerm_subnet.frontend</title>
<path fill="none" stroke="black" d="M902.24,-41C852.66,-41 795.39,-41 748.34,-41"/>
<polygon fill="black" stroke="black" points="748.43,-37.5 738.43,-41 748.43,-44.5 748.43,-37.5"/>
</g>
<!-- azurerm_network_interface_application_security_group_association.asgtonic -->
<g id="node3" class="node">
<title>azurerm_network_interface_application_security_group_association.asgtonic</title>
<polygon fill="none" stroke="black" points="1739.75,-36 1262.5,-36 1262.5,0 1739.75,0 1739.75,-36"/>
<text xml:space="preserve" text-anchor="middle" x="1501.12" y="-12.2" font-family="sans-serif" font-size="14.00">azurerm_network_interface_application_security_group_association.asgtonic</text>
</g>
<!-- azurerm_network_interface_application_security_group_association.asgtonic&#45;&gt;azurerm_application_security_group.af&#45;asg -->
<g id="edge3" class="edge">
<title>azurerm_network_interface_application_security_group_association.asgtonic&#45;&gt;azurerm_application_security_group.af&#45;asg</title>
<path fill="none" stroke="black" d="M1262.09,-14.31C1250.06,-14.19 1238.14,-14.09 1226.5,-14 917.62,-11.74 840.37,-10.42 531.5,-14 523.56,-14.09 515.42,-14.21 507.19,-14.34"/>
<polygon fill="black" stroke="black" points="507.4,-10.84 497.46,-14.51 507.52,-17.84 507.4,-10.84"/>
</g>
<!-- azurerm_network_interface_application_security_group_association.asgtonic&#45;&gt;azurerm_network_interface.vm1&#45;nic -->
<g id="edge4" class="edge">
<title>azurerm_network_interface_application_security_group_association.asgtonic&#45;&gt;azurerm_network_interface.vm1&#45;nic</title>
<path fill="none" stroke="black" d="M1262.15,-29.38C1222.05,-31.3 1181.86,-33.22 1146.03,-34.94"/>
<polygon fill="black" stroke="black" points="1145.9,-31.44 1136.07,-35.41 1146.23,-38.43 1145.9,-31.44"/>
</g>
<!-- azurerm_network_security_group.af&#45;nsg -->
<g id="node4" class="node">
<title>azurerm_network_security_group.af&#45;nsg</title>
<polygon fill="none" stroke="black" points="486.88,-190 228.62,-190 228.62,-154 486.88,-154 486.88,-190"/>
<text xml:space="preserve" text-anchor="middle" x="357.75" y="-166.2" font-family="sans-serif" font-size="14.00">azurerm_network_security_group.af&#45;nsg</text>
</g>
<!-- azurerm_network_security_group.af&#45;nsg&#45;&gt;azurerm_resource_group.rg -->
<g id="edge5" class="edge">
<title>azurerm_network_security_group.af&#45;nsg&#45;&gt;azurerm_resource_group.rg</title>
<path fill="none" stroke="black" d="M293.58,-153.56C255.55,-142.45 206.94,-128.26 167.1,-116.63"/>
<polygon fill="black" stroke="black" points="168.15,-113.29 157.57,-113.85 166.19,-120.01 168.15,-113.29"/>
</g>
<!-- azurerm_subnet.AzureFirewallSubnet -->
<g id="node6" class="node">
<title>azurerm_subnet.AzureFirewallSubnet</title>
<polygon fill="none" stroke="black" points="774,-113 531.5,-113 531.5,-77 774,-77 774,-113"/>
<text xml:space="preserve" text-anchor="middle" x="652.75" y="-89.2" font-family="sans-serif" font-size="14.00">azurerm_subnet.AzureFirewallSubnet</text>
</g>
<!-- azurerm_virtual_network.app_vnet -->
<g id="node10" class="node">
<title>azurerm_virtual_network.app_vnet</title>
<polygon fill="none" stroke="black" points="469.62,-113 245.88,-113 245.88,-77 469.62,-77 469.62,-113"/>
<text xml:space="preserve" text-anchor="middle" x="357.75" y="-89.2" font-family="sans-serif" font-size="14.00">azurerm_virtual_network.app_vnet</text>
</g>
<!-- azurerm_subnet.AzureFirewallSubnet&#45;&gt;azurerm_virtual_network.app_vnet -->
<g id="edge6" class="edge">
<title>azurerm_subnet.AzureFirewallSubnet&#45;&gt;azurerm_virtual_network.app_vnet</title>
<path fill="none" stroke="black" d="M531.31,-95C514.76,-95 497.76,-95 481.18,-95"/>
<polygon fill="black" stroke="black" points="481.3,-91.5 471.3,-95 481.3,-98.5 481.3,-91.5"/>
</g>
<!-- azurerm_subnet.backend -->
<g id="node7" class="node">
<title>azurerm_subnet.backend</title>
<polygon fill="none" stroke="black" points="737.25,-167 568.25,-167 568.25,-131 737.25,-131 737.25,-167"/>
<text xml:space="preserve" text-anchor="middle" x="652.75" y="-143.2" font-family="sans-serif" font-size="14.00">azurerm_subnet.backend</text>
</g>
<!-- azurerm_subnet.backend&#45;&gt;azurerm_virtual_network.app_vnet -->
<g id="edge7" class="edge">
<title>azurerm_subnet.backend&#45;&gt;azurerm_virtual_network.app_vnet</title>
<path fill="none" stroke="black" d="M567.79,-133.53C537.33,-127.91 502.42,-121.48 469.98,-115.5"/>
<polygon fill="black" stroke="black" points="471.03,-112.13 460.56,-113.76 469.76,-119.02 471.03,-112.13"/>
</g>
<!-- azurerm_subnet.frontend&#45;&gt;azurerm_virtual_network.app_vnet -->
<g id="edge8" class="edge">
<title>azurerm_subnet.frontend&#45;&gt;azurerm_virtual_network.app_vnet</title>
<path fill="none" stroke="black" d="M568.57,-56.33C537.94,-61.97 502.74,-68.46 470.03,-74.49"/>
<polygon fill="black" stroke="black" points="469.73,-70.99 460.53,-76.24 471,-77.87 469.73,-70.99"/>
</g>
<!-- azurerm_subnet_network_security_group_association.nsgbackend -->
<g id="node9" class="node">
<title>azurerm_subnet_network_security_group_association.nsgbackend</title>
<polygon fill="none" stroke="black" points="1226.5,-190 810,-190 810,-154 1226.5,-154 1226.5,-190"/>
<text xml:space="preserve" text-anchor="middle" x="1018.25" y="-166.2" font-family="sans-serif" font-size="14.00">azurerm_subnet_network_security_group_association.nsgbackend</text>
</g>
<!-- azurerm_subnet_network_security_group_association.nsgbackend&#45;&gt;azurerm_network_security_group.af&#45;nsg -->
<g id="edge9" class="edge">
<title>azurerm_subnet_network_security_group_association.nsgbackend&#45;&gt;azurerm_network_security_group.af&#45;nsg</title>
<path fill="none" stroke="black" d="M809.58,-175.64C797.54,-175.78 785.61,-175.9 774,-176 666.23,-176.89 639.27,-177.25 531.5,-176 520.7,-175.87 509.52,-175.71 498.29,-175.51"/>
<polygon fill="black" stroke="black" points="498.62,-172.01 488.55,-175.33 498.49,-179.01 498.62,-172.01"/>
</g>
<!-- azurerm_subnet_network_security_group_association.nsgbackend&#45;&gt;azurerm_subnet.backend -->
<g id="edge10" class="edge">
<title>azurerm_subnet_network_security_group_association.nsgbackend&#45;&gt;azurerm_subnet.backend</title>
<path fill="none" stroke="black" d="M809.75,-158.87C788.55,-157.53 767.83,-156.22 748.77,-155.01"/>
<polygon fill="black" stroke="black" points="749.16,-151.53 738.95,-154.39 748.71,-158.52 749.16,-151.53"/>
</g>
<!-- azurerm_virtual_network.app_vnet&#45;&gt;azurerm_resource_group.rg -->
<g id="edge11" class="edge">
<title>azurerm_virtual_network.app_vnet&#45;&gt;azurerm_resource_group.rg</title>
<path fill="none" stroke="black" d="M245.66,-95C229.07,-95 212.04,-95 195.64,-95"/>
<polygon fill="black" stroke="black" points="195.91,-91.5 185.91,-95 195.91,-98.5 195.91,-91.5"/>
</g>
</g>
</svg>
